<?xml version="1.0" standalone="no"?><!DOCTYPE svg PUBLIC "-//W3C//DTD SVG 1.1//EN" "http://www.w3.org/Graphics/SVG/1.1/DTD/svg11.dtd"><svg t="1752908458430" class="icon" viewBox="0 0 1024 1024" version="1.1" xmlns="http://www.w3.org/2000/svg" p-id="2107" width="48" height="48" xmlns:xlink="http://www.w3.org/1999/xlink"><path d="M875.989333 189.098667a128 128 0 0 1 0 181.013333L501.248 744.874667a85.333333 85.333333 0 0 1-60.352 25.002666h-148.266667a42.666667 42.666667 0 0 1-42.666666-42.666666v-148.266667a85.333333 85.333333 0 0 1 25.002666-60.352L649.728 143.850667a128 128 0 0 1 181.013333 0l45.248 45.248zM149.333333 832h725.333334a42.666667 42.666667 0 1 1 0 85.333333H149.333333a42.666667 42.666667 0 1 1 0-85.333333z" fill="#007ACC" p-id="2108"></path></svg>