<?xml version="1.0" encoding="UTF-8"?>
<svg width="16" height="16" viewBox="0 0 16 16" fill="none" xmlns="http://www.w3.org/2000/svg">
  <path d="M8 1C6.5 1.5 5.5 3 5.5 4.5C5.5 5.5 6 6.5 7 7C6.5 7.5 6 8.5 6 9.5C6 11.5 7.5 13 9.5 13C11.5 13 13 11.5 13 9.5C13 8 12 6.5 10.5 5.5C11 4.5 10.5 3 9 2.5C8.5 1.5 8 1 8 1Z" fill="#FF6B35"/>
  <path d="M8.5 3C9.5 3.5 10 4.5 9.5 5.5C8.5 6 7.5 6.5 7.5 7.5C7.5 8.5 8 9.5 9 9.5C10 9.5 10.5 8.5 10.5 7.5C10.5 6.5 9.5 5.5 8.5 4.5V3Z" fill="#FFD93D"/>
  <path d="M8 5C8.5 5.5 9 6 9 6.5C9 7 8.5 7.5 8 7.5C7.5 7.5 7 7 7 6.5C7 6 7.5 5.5 8 5Z" fill="#FF9F1C"/>
</svg> 