<?xml version="1.0" standalone="no"?><!DOCTYPE svg PUBLIC "-//W3C//DTD SVG 1.1//EN" "http://www.w3.org/Graphics/SVG/1.1/DTD/svg11.dtd"><svg t="1753064102036" class="icon" viewBox="0 0 1024 1024" version="1.1" xmlns="http://www.w3.org/2000/svg" p-id="2111" xmlns:xlink="http://www.w3.org/1999/xlink" width="48" height="48"><path d="M454.613333 147.882667l-90.090666 182.485333-201.386667 29.269333a64 64 0 0 0-36.608 18.666667l-2.837333 3.114667a64 64 0 0 0 3.989333 87.381333l145.706667 142.037333-34.389334 200.597334a64 64 0 0 0 6.442667 40.597333l1.92 3.413333a64 64 0 0 0 84.501333 23.466667L512 784.192l180.138667 94.72a64 64 0 0 0 40.597333 6.421333l3.690667-0.746666a64 64 0 0 0 48.576-73.152l-34.410667-200.597334 145.728-142.037333a64 64 0 0 0 18.666667-36.629333l0.426666-3.733334a64 64 0 0 0-54.549333-68.8l-201.408-29.269333-90.069333-182.485333a64 64 0 0 0-114.773334 0z" fill="#f4ea2a" p-id="2112"></path></svg>